<?xml version="1.0" ?><!DOCTYPE svg  PUBLIC '-//W3C//DTD SVG 1.1//EN'  'http://www.w3.org/Graphics/SVG/1.1/DTD/svg11.dtd'><svg enable-background="new 0 0 48 48" id="Layer_1" version="1.1" viewBox="0 0 48 48" xml:space="preserve" xmlns="http://www.w3.org/2000/svg" xmlns:xlink="http://www.w3.org/1999/xlink"><g><path d="M33.8,26.7l3.5-0.3v-4.9l-3.5-0.3c-0.2-0.8-0.5-1.5-0.9-2.2l2.3-2.6l-3.5-3.5L29,15.1c-0.7-0.4-1.5-0.7-2.2-0.9l-0.3-3.4   h-4.9l-0.3,3.4c-0.8,0.2-1.5,0.5-2.2,0.9l-2.6-2.2L13,16.4l2.2,2.6c-0.4,0.7-0.7,1.5-0.9,2.2l-3.4,0.3v4.9l3.4,0.3   c0.2,0.8,0.5,1.6,0.9,2.3L13,31.6l3.5,3.5l2.6-2.2c0.7,0.4,1.5,0.7,2.2,0.9l0.3,3.4h4.9l0.3-3.4c0.8-0.2,1.6-0.5,2.2-0.9l2.6,2.2   l3.5-3.5L32.9,29C33.3,28.3,33.6,27.5,33.8,26.7z M24,28.2c-2.3,0-4.2-1.9-4.2-4.2s1.9-4.2,4.2-4.2s4.2,1.9,4.2,4.2   S26.3,28.2,24,28.2z"/><path d="M27.9,7.6l-1.6-2.3c4.8,0.6,9.2,3,12.3,6.9l1.6-1.3C36.8,6.7,31.9,4,26.5,3.3l2.4-1.7L27.8,0l-5.2,3.6l3.6,5.2L27.9,7.6z"/><path d="M20.1,40.4l1.6,2.3c-4.8-0.6-9.2-3-12.3-6.9l-1.6,1.3c3.4,4.3,8.3,6.9,13.7,7.6l-2.4,1.7l1.2,1.7l5.2-3.6l-3.6-5.2   L20.1,40.4z"/><path d="M48,27.8l-3.6-5.2l-5.2,3.6l1.2,1.7l2.3-1.6c-0.6,4.8-3,9.2-6.9,12.3l1.3,1.6c4.3-3.4,6.9-8.3,7.6-13.7l1.7,2.4L48,27.8z"/><path d="M7.6,20.3l-2.3,1.6c0.5-4.9,3-9.4,6.9-12.5l-1.3-1.6c-4.3,3.5-7,8.4-7.6,13.8l-1.7-2.4L0,20.4l3.6,5.2L8.8,22L7.6,20.3z"/></g></svg>