<?xml version="1.0" ?><svg height="30px" version="1.1" viewBox="0 0 30 30" width="30px" xmlns="http://www.w3.org/2000/svg" xmlns:sketch="http://www.bohemiancoding.com/sketch/ns" xmlns:xlink="http://www.w3.org/1999/xlink"><title/><desc/><defs/><g fill="none" fill-rule="evenodd" id="device" stroke="none" stroke-width="1"><g fill="#000000" id="Devices" transform="translate(-405.000000, -45.000000)"><path d="M419,69 L406.508264,69 C405.675273,69 405,68.3250769 405,67.5065668 L405,49.4934332 C405,48.6686328 405.668655,48 406.508264,48 L432.491736,48 C433.324727,48 434,48.6749231 434,49.4934332 L434,67.5065668 C434,68.3313672 433.331345,69 432.491736,69 L420,69 L420,71 L428.491796,71 C428.772469,71 429,71.2319336 429,71.5 C429,71.7761424 428.773385,72 428.491796,72 L410.508204,72 C410.227531,72 410,71.7680664 410,71.5 C410,71.2238576 410.226615,71 410.508204,71 L419,71 L419,69 Z M407.496168,50 L431.503832,50 C431.777858,50 432,50.2149428 432,50.4904432 L432,66.5095568 C432,66.7804211 431.775229,67 431.503832,67 L407.496168,67 C407.222142,67 407,66.7850572 407,66.5095568 L407,50.4904432 C407,50.2195789 407.224771,50 407.496168,50 Z" id="device_009-computer-screen-monitor-display-desktop-pc"/></g></g></svg>