<?xml version="1.0" encoding="UTF-8"?>
<svg width="700pt" height="700pt" version="1.1" viewBox="0 0 700 700" xmlns="http://www.w3.org/2000/svg" xmlns:xlink="http://www.w3.org/1999/xlink">
 <defs>
  <symbol id="m" overflow="visible">
   <path d="m29.312-1.75c-1.5117 0.78125-3.0898 1.3711-4.7344 1.7656-1.6367 0.40625-3.3398 0.60938-5.1094 0.60938-5.3125 0-9.5273-1.4844-12.641-4.4531-3.1055-2.9688-4.6562-7-4.6562-12.094s1.5508-9.125 4.6562-12.094c3.1133-2.9688 7.3281-4.4531 12.641-4.4531 1.7695 0 3.4727 0.19922 5.1094 0.59375 1.6445 0.39844 3.2227 0.99219 4.7344 1.7812v6.5938c-1.5312-1.0391-3.0391-1.8008-4.5156-2.2812-1.4805-0.48828-3.0391-0.73438-4.6719-0.73438-2.9375 0-5.2461 0.94531-6.9219 2.8281-1.6797 1.875-2.5156 4.4648-2.5156 7.7656 0 3.293 0.83594 5.8828 2.5156 7.7656 1.6758 1.875 3.9844 2.8125 6.9219 2.8125 1.6328 0 3.1914-0.23828 4.6719-0.71875 1.4766-0.48828 2.9844-1.2539 4.5156-2.2969z"/>
  </symbol>
  <symbol id="k" overflow="visible">
   <path d="m21.453-17.406c-0.67969-0.3125-1.3516-0.53906-2.0156-0.6875-0.65625-0.15625-1.3203-0.23438-1.9844-0.23438-1.9688 0-3.4844 0.63281-4.5469 1.8906-1.0547 1.2617-1.5781 3.0703-1.5781 5.4219v11.016h-7.6562v-23.922h7.6562v3.9219c0.97656-1.5625 2.1016-2.7031 3.375-3.4219 1.2812-0.71875 2.8125-1.0781 4.5938-1.0781 0.25 0 0.52344 0.011719 0.82812 0.03125 0.30078 0.023438 0.73438 0.070312 1.2969 0.14062z"/>
  </symbol>
  <symbol id="c" overflow="visible">
   <path d="m27.562-12.031v2.1875h-17.891c0.1875 1.793 0.83203 3.1367 1.9375 4.0312 1.1133 0.89844 2.6719 1.3438 4.6719 1.3438 1.6016 0 3.25-0.23438 4.9375-0.70312 1.6875-0.47656 3.4219-1.2031 5.2031-2.1719v5.8906c-1.8047 0.6875-3.6094 1.2031-5.4219 1.5469-1.8125 0.35156-3.6211 0.53125-5.4219 0.53125-4.3359 0-7.7031-1.0977-10.109-3.2969-2.3984-2.207-3.5938-5.2969-3.5938-9.2656 0-3.9062 1.1758-6.9727 3.5312-9.2031 2.3633-2.2383 5.6094-3.3594 9.7344-3.3594 3.7578 0 6.7695 1.1367 9.0312 3.4062 2.2578 2.2617 3.3906 5.2812 3.3906 9.0625zm-7.8594-2.5312c0-1.457-0.42969-2.6289-1.2812-3.5156-0.84375-0.89453-1.9492-1.3438-3.3125-1.3438-1.4922 0-2.6992 0.41797-3.625 1.25-0.91797 0.83594-1.4922 2.0391-1.7188 3.6094z"/>
  </symbol>
  <symbol id="a" overflow="visible">
   <path d="m14.391-10.766c-1.5938 0-2.793 0.27344-3.5938 0.8125-0.80469 0.54297-1.2031 1.3398-1.2031 2.3906 0 0.96875 0.32031 1.7305 0.96875 2.2812 0.64453 0.54297 1.5469 0.8125 2.7031 0.8125 1.4375 0 2.6445-0.51562 3.625-1.5469 0.98828-1.0312 1.4844-2.3203 1.4844-3.875v-0.875zm11.688-2.8906v13.656h-7.7031v-3.5469c-1.0312 1.4492-2.1875 2.5078-3.4688 3.1719s-2.8398 1-4.6719 1c-2.4805 0-4.4961-0.72266-6.0469-2.1719-1.543-1.4453-2.3125-3.3203-2.3125-5.625 0-2.8125 0.96094-4.8672 2.8906-6.1719 1.9375-1.3125 4.9688-1.9688 9.0938-1.9688h4.5156v-0.60938c0-1.207-0.48047-2.0938-1.4375-2.6562-0.94922-0.5625-2.4375-0.84375-4.4688-0.84375-1.6367 0-3.1562 0.16797-4.5625 0.5-1.4062 0.32422-2.7188 0.8125-3.9375 1.4688v-5.8281c1.6445-0.40625 3.2891-0.70703 4.9375-0.90625 1.6562-0.20703 3.3047-0.3125 4.9531-0.3125 4.3203 0 7.4375 0.85547 9.3438 2.5625 1.9141 1.6992 2.875 4.4609 2.875 8.2812z"/>
  </symbol>
  <symbol id="b" overflow="visible">
   <path d="m12.031-30.719v6.7969h7.875v5.4688h-7.875v10.141c0 1.1172 0.21875 1.8711 0.65625 2.2656 0.4375 0.38672 1.3125 0.57812 2.625 0.57812h3.9375v5.4688h-6.5625c-3.0234 0-5.1641-0.62891-6.4219-1.8906-1.2617-1.2578-1.8906-3.3984-1.8906-6.4219v-10.141h-3.7969v-5.4688h3.7969v-6.7969z"/>
  </symbol>
  <symbol id="j" overflow="visible">
   <path d="m19.953-20.422v-12.812h7.6875v33.234h-7.6875v-3.4531c-1.0547 1.4062-2.2148 2.4375-3.4844 3.0938-1.2734 0.65625-2.7422 0.98438-4.4062 0.98438-2.9492 0-5.3711-1.1719-7.2656-3.5156-1.8867-2.3438-2.8281-5.3594-2.8281-9.0469s0.94141-6.7031 2.8281-9.0469c1.8945-2.3438 4.3164-3.5156 7.2656-3.5156 1.6562 0 3.1172 0.33594 4.3906 1 1.2812 0.65625 2.4453 1.6836 3.5 3.0781zm-5.0469 15.484c1.6445 0 2.8945-0.59766 3.75-1.7969 0.86328-1.1953 1.2969-2.9297 1.2969-5.2031 0-2.2812-0.43359-4.0195-1.2969-5.2188-0.85547-1.1953-2.1055-1.7969-3.75-1.7969-1.625 0-2.8711 0.60156-3.7344 1.7969-0.85547 1.1992-1.2812 2.9375-1.2812 5.2188 0 2.2734 0.42578 4.0078 1.2812 5.2031 0.86328 1.1992 2.1094 1.7969 3.7344 1.7969z"/>
  </symbol>
  <symbol id="i" overflow="visible">
   <path d="m16.406-4.9375c1.6328 0 2.8828-0.59766 3.75-1.7969 0.86328-1.1953 1.2969-2.9297 1.2969-5.2031 0-2.2812-0.43359-4.0195-1.2969-5.2188-0.86719-1.1953-2.1172-1.7969-3.75-1.7969-1.6367 0-2.8906 0.60547-3.7656 1.8125-0.875 1.1992-1.3125 2.9336-1.3125 5.2031 0 2.2617 0.4375 3.9961 1.3125 5.2031 0.875 1.1992 2.1289 1.7969 3.7656 1.7969zm-5.0781-15.484c1.0508-1.3945 2.2188-2.4219 3.5-3.0781 1.2812-0.66406 2.7539-1 4.4219-1 2.9453 0 5.3672 1.1719 7.2656 3.5156 1.8945 2.3438 2.8438 5.3594 2.8438 9.0469s-0.94922 6.7031-2.8438 9.0469c-1.8984 2.3438-4.3203 3.5156-7.2656 3.5156-1.668 0-3.1406-0.33594-4.4219-1s-2.4492-1.6914-3.5-3.0781v3.4531h-7.6562v-33.234h7.6562z"/>
  </symbol>
  <symbol id="h" overflow="visible">
   <path d="m0.53125-23.922h7.6562l6.4219 16.234 5.4688-16.234h7.6562l-10.062 26.188c-1.0117 2.6641-2.1953 4.5234-3.5469 5.5781-1.3438 1.0625-3.1211 1.5938-5.3281 1.5938h-4.4219v-5.0156h2.3906c1.3008 0 2.2422-0.21094 2.8281-0.625 0.59375-0.40625 1.0547-1.1484 1.3906-2.2188l0.20312-0.65625z"/>
  </symbol>
  <symbol id="g" overflow="visible">
   <path d="m4.0156-31.891h9.1875l11.594 21.875v-21.875h7.7969v31.891h-9.1875l-11.594-21.875v21.875h-7.7969z"/>
  </symbol>
  <symbol id="f" overflow="visible">
   <path d="m3.6719-23.922h7.6562v23.922h-7.6562zm0-9.3125h7.6562v6.2344h-7.6562z"/>
  </symbol>
  <symbol id="e" overflow="visible">
   <path d="m27.734-14.562v14.562h-7.7031v-11.109c0-2.0938-0.046875-3.5312-0.14062-4.3125-0.085937-0.78125-0.24219-1.3594-0.46875-1.7344-0.30469-0.5-0.71094-0.88281-1.2188-1.1562-0.51172-0.28125-1.0938-0.42188-1.75-0.42188-1.5938 0-2.8516 0.61719-3.7656 1.8438-0.90625 1.2305-1.3594 2.9375-1.3594 5.125v11.766h-7.6562v-33.234h7.6562v12.812c1.1445-1.3945 2.3633-2.4219 3.6562-3.0781 1.3008-0.66406 2.7383-1 4.3125-1 2.7578 0 4.8516 0.85156 6.2812 2.5469 1.4375 1.6875 2.1562 4.1523 2.1562 7.3906z"/>
  </symbol>
  <symbol id="d" overflow="visible">
   <path d="m27.734-14.562v14.562h-7.7031v-11.156c0-2.0625-0.046875-3.4844-0.14062-4.2656-0.085937-0.78125-0.24219-1.3594-0.46875-1.7344-0.30469-0.5-0.71094-0.88281-1.2188-1.1562-0.51172-0.28125-1.0938-0.42188-1.75-0.42188-1.5938 0-2.8516 0.61719-3.7656 1.8438-0.90625 1.2305-1.3594 2.9375-1.3594 5.125v11.766h-7.6562v-23.922h7.6562v3.5c1.1445-1.3945 2.3633-2.4219 3.6562-3.0781 1.3008-0.66406 2.7383-1 4.3125-1 2.7578 0 4.8516 0.85156 6.2812 2.5469 1.4375 1.6875 2.1562 4.1523 2.1562 7.3906z"/>
  </symbol>
  <symbol id="l" overflow="visible">
   <path d="m0.21875-31.891h29.391v6.2188h-10.578v25.672h-8.2188v-25.672h-10.594z"/>
  </symbol>
 </defs>
 <g>
  <path d="m113.75 253.75-35 52.5h27.766c6.1211 56.836 31.922 109.75 72.941 149.56 41.02 39.816 94.672 64.035 151.67 68.457 56.992 4.4219 113.74-11.227 160.41-44.234 46.672-33.012 80.328-81.305 95.141-136.52l-16.902-4.5273 0.003906-0.003906c-13.723 51.113-44.832 95.844-87.977 126.49-43.145 30.645-95.625 45.293-148.4 41.414-52.777-3.875-102.55-26.031-140.76-62.652s-62.445-85.418-68.551-137.98h24.66z"/>
  <path d="m350 35c-53.91 0.039062-106.3 17.84-149.09 50.645-42.781 32.805-73.566 78.785-87.59 130.84l16.902 4.5273-0.003906 0.003906c13.723-51.113 44.832-95.844 87.977-126.49 43.145-30.645 95.625-45.293 148.4-41.414 52.777 3.875 102.55 26.031 140.76 62.652s62.445 85.418 68.551 137.98h-24.66l35 52.5 35-52.5h-27.766c-6.6328-60.004-35.121-115.46-80.027-155.81s-103.09-62.75-163.46-62.941z"/>
  <path d="m290.94 352.42c0 3.625-2.9375 6.5625-6.5625 6.5625s-6.5625-2.9375-6.5625-6.5625 2.9375-6.5625 6.5625-6.5625 6.5625 2.9375 6.5625 6.5625"/>
  <path d="m290.94 221.17c0 3.625-2.9375 6.5625-6.5625 6.5625s-6.5625-2.9375-6.5625-6.5625 2.9375-6.5625 6.5625-6.5625 6.5625 2.9375 6.5625 6.5625"/>
  <path d="m256.59 291.56h-53.633c-6.6758 7.9805-10.371 18.031-10.453 28.438 0.28516 8.9883 3.043 17.723 7.9688 25.246 4.9258 7.5273 11.828 13.547 19.949 17.406l20.641-15.48h0.003906c1.1367-0.85156 2.5156-1.3125 3.9375-1.3125h20.898c2.0781-5.8867 6.8281-10.434 12.797-12.262s12.453-0.71484 17.473 2.9961c5.0156 3.7148 7.9766 9.5859 7.9766 15.828s-2.9609 12.117-7.9766 15.828c-5.0195 3.7109-11.504 4.8242-17.473 2.9961-5.9688-1.8242-10.719-6.375-12.797-12.262h-18.711l-19.477 14.609c2.1562 25.93 27.32 46.406 58.121 46.406 17.75 0.27734 34.758-7.1133 46.668-20.273v-239.45c-11.91-13.164-28.918-20.551-46.668-20.273-32.215 0-58.332 22.387-58.332 50 0.03125 2.6484 0.34766 5.2852 0.9375 7.8711l19.035 16.742h18.422l0.003907-0.003906c2.0781-5.8867 6.8281-10.434 12.797-12.262s12.453-0.71484 17.473 2.9961c5.0156 3.7148 7.9766 9.5859 7.9766 15.828s-2.9609 12.117-7.9766 15.828c-5.0195 3.7109-11.504 4.8242-17.473 2.9961-5.9688-1.8242-10.719-6.375-12.797-12.262h-20.898c-1.5938 0-3.1367-0.58203-4.332-1.6367l-20.734-18.238v0.003906c-7.9805 3.8555-14.754 9.8203-19.59 17.246-4.832 7.4258-7.5469 16.035-7.8438 24.891 0.082031 10.402 3.7773 20.453 10.449 28.438h54.922c2.6484-5.6484 7.8203-9.7031 13.934-10.934 6.1172-1.2266 12.453 0.51172 17.078 4.6953 4.6289 4.1797 7 10.309 6.3945 16.516-0.60938 6.207-4.1211 11.762-9.4688 14.969-5.3516 3.207-11.902 3.6875-17.664 1.3008-5.7617-2.3906-10.051-7.3711-11.559-13.422z"/>
  <path d="m282.19 286.8c0 3.625-2.9375 6.5625-6.5625 6.5625s-6.5625-2.9375-6.5625-6.5625 2.9375-6.5625 6.5625-6.5625 6.5625 2.9375 6.5625 6.5625"/>
  <path d="m380.23 332.5c-4.3125 0.003906-8.6016-0.63281-12.727-1.8867v88.711c4.7852 0.50781 9.6016 0.73047 14.414 0.66406 11.32-0.20312 22.559-1.9492 33.402-5.1992v-16.875c-0.09375-3.3672 0.74219-6.6914 2.418-9.6133s4.1211-5.3242 7.0742-6.9453c5.4922-2.7266 10.727-5.9375 15.648-9.5898 2.6406-1.8984 5.7891-2.957 9.0352-3.043 3.25-0.082031 6.4492 0.8125 9.1797 2.5703l13.746 8.4453 0.003906 0.003907c17.172-18.102 29.27-40.41 35.078-64.672l-23.832-14.641c2.4414-13.512 2.4414-27.348 0-40.859l23.828-14.637c-5.7852-24.27-17.855-46.594-35.008-64.715l-13.816 8.4883v-0.003906c-2.7305 1.7617-5.9297 2.6562-9.1797 2.5742-3.2461-0.085938-6.3945-1.1445-9.0352-3.043-4.9219-3.6523-10.16-6.8633-15.648-9.5938-2.9531-1.6172-5.3984-4.0195-7.0742-6.9414s-2.5117-6.25-2.418-9.6133v-16.945c-11.93-3.5469-24.328-5.2734-36.773-5.1289-3.7266 0.050781-7.4062 0.27734-11.043 0.67969v88.695c4.125-1.2539 8.4141-1.8906 12.727-1.8867 13.281 0.66406 25.758 6.5586 34.703 16.398 8.9453 9.8359 13.629 22.82 13.023 36.102 0.60547 13.281-4.0781 26.266-13.023 36.102-8.9453 9.8398-21.422 15.734-34.703 16.398z"/>
  <use x="70" y="691.25" xlink:href="#m"/>
  <use x="102.109375" y="691.25" xlink:href="#k"/>
  <use x="123.683594" y="691.25" xlink:href="#c"/>
  <use x="153.355469" y="691.25" xlink:href="#a"/>
  <use x="182.878906" y="691.25" xlink:href="#b"/>
  <use x="203.792969" y="691.25" xlink:href="#c"/>
  <use x="233.464844" y="691.25" xlink:href="#j"/>
  <use x="280.011719" y="691.25" xlink:href="#i"/>
  <use x="311.328125" y="691.25" xlink:href="#h"/>
  <use x="355.078125" y="691.25" xlink:href="#g"/>
  <use x="391.695312" y="691.25" xlink:href="#f"/>
  <use x="406.691406" y="691.25" xlink:href="#b"/>
  <use x="427.605469" y="691.25" xlink:href="#e"/>
  <use x="458.75" y="691.25" xlink:href="#f"/>
  <use x="473.746094" y="691.25" xlink:href="#d"/>
  <use x="504.894531" y="691.25" xlink:href="#a"/>
  <use x="534.417969" y="691.25" xlink:href="#d"/>
  <use x="580.792969" y="691.25" xlink:href="#l"/>
  <use x="610.636719" y="691.25" xlink:href="#a"/>
  <use x="640.160156" y="691.25" xlink:href="#b"/>
  <use x="661.074219" y="691.25" xlink:href="#a"/>
  <use x="690.597656" y="691.25" xlink:href="#e"/>
 </g>
</svg>
